<?xml version="1.0" encoding="UTF-8"?>
<svg width="482px" height="426px" viewBox="0 0 482 426" version="1.1" xmlns="http://www.w3.org/2000/svg" xmlns:xlink="http://www.w3.org/1999/xlink">
    <title>Group 13</title>
    <g id="mid-fi" stroke="none" stroke-width="1" fill="none" fill-rule="evenodd">
        <g id="Group-12" transform="translate(13.000000, 13.000000)" stroke="#1497E4">
            <path d="M54.1186813,387 C24.2297589,387 0,362.506929 0,332.293194 L0,12.1570681 C0,5.44290477 5.38439088,1.8189894e-12 12.0263736,1.8189894e-12 L160.351648,1.8189894e-12 C161.053686,1.8189894e-12 161.741674,0.0608073856 162.41074,0.17749614 C163.273762,0.109916928 164.037217,0.153375663 164.700984,0.307782423 C167.738074,1.01427584 170.055119,1.37681292 172.378022,3.54733311 C180.280579,10.9314828 195.124806,27.3092663 216.910703,52.6806838 L401.881319,52.6806283 C431.770241,52.6806283 456,77.1736997 456,107.387435 L456,332.293194 C456,362.506929 431.770241,387 401.881319,387" id="Path" stroke-width="25"></path>
            <path d="M157.25258,387 C162.651236,386.984519 165.805843,386.984519 166.716402,387 C177.840928,387.189141 188.435466,382.101376 192.280436,368.175621 C196.59748,352.540101 193.826981,319.517635 183.968939,269.108221" id="Path-7" stroke-width="25"></path>
            <ellipse id="Oval" stroke-width="5" fill="#1497E4" cx="292.5" cy="387" rx="24" ry="23.5"></ellipse>
            <path d="M112.939807,237.884207 C110.336534,234.404258 110.336534,231.734244 112.939807,229.874166 C115.543081,228.014088 117.618963,226.898148 119.167453,226.526347 C123.333408,222.815714 126.194257,222.806931 127.75,226.5 C128.583104,228.477647 132.75,235 139.882702,241.159456 C141.812722,242.826128 146.665801,246.213367 154.441939,251.321173 L142.89671,261.863886 C140.032829,263.519622 138.106142,264.095066 137.116649,263.590218 C135.511204,262.771106 127.880542,255.235812 126.118166,253.542444 C122.726467,250.28355 118.33368,245.064137 112.939807,237.884207 Z" id="Path-9" stroke-width="5" fill="#1497E4"></path>
            <path d="M204.939807,237.884207 C202.336534,234.404258 202.336534,231.734244 204.939807,229.874166 C207.543081,228.014088 209.618963,226.898148 211.167453,226.526347 C215.452935,222.815714 218.373547,222.806931 219.929291,226.5 C220.762395,228.477647 225.110259,233.821112 231.882702,241.159456 C233.601788,243.022188 238.454867,246.409427 246.441939,251.321173 L234.89671,261.863886 C232.032829,263.519622 230.106142,264.095066 229.116649,263.590218 C227.511204,262.771106 219.880542,255.235812 218.118166,253.542444 C214.726467,250.28355 210.33368,245.064137 204.939807,237.884207 Z" id="Path-9" stroke-width="5" fill="#1497E4" transform="translate(224.714645, 243.751967) scale(-1, 1) translate(-224.714645, -243.751967) "></path>
            <path d="M115,228.492676 C108.630584,217.268673 103.946614,207.104448 100.948088,198 C97.9495619,188.895552 94.6212639,174.842242 90.9631938,155.840071 C89.9633036,149.816386 91.5964079,145.347777 95.8625068,142.434244 C100.128606,139.52071 105.170221,138.032915 110.987352,137.970858 L137.841809,137.970858 L137.841809,148.648732 L107.080512,148.648732 C102.800049,148.648732 101.388526,152.372752 102.845943,159.820791 C103.170763,161.480763 106.819935,184.652564 115,208 C116.89721,213.414992 119.269883,219.041112 122.11802,224.878362 L115,228.492676 Z" id="Path-10" stroke-width="3" fill="#1497E4"></path>
            <path d="M243,228.492676 C236.630584,217.268673 231.946614,207.104448 228.948088,198 C225.949562,188.895552 222.621264,174.842242 218.963194,155.840071 C217.963304,149.816386 219.596408,145.347777 223.862507,142.434244 C228.128606,139.52071 233.170221,138.032915 238.987352,137.970858 L265.841809,137.970858 L265.841809,148.648732 L235.080512,148.648732 C230.800049,148.648732 229.388526,152.372752 230.845943,159.820791 C231.170763,161.480763 234.819935,184.652564 243,208 C244.89721,213.414992 247.269883,219.041112 250.11802,224.878362 L243,228.492676 Z" id="Path-10" stroke-width="3" fill="#1497E4" transform="translate(242.260109, 183.231767) scale(-1, 1) translate(-242.260109, -183.231767) "></path>
            <rect id="Rectangle" stroke-width="5" fill="#1497E4" x="140.5" y="134.5" width="9" height="16" rx="4"></rect>
            <rect id="Rectangle" stroke-width="5" fill="#1497E4" x="208.5" y="134.5" width="9" height="16" rx="4"></rect>
            <path d="M137.75,240.75 C152.416667,252.583333 167.333333,258.5 182.5,258.5 C194.833333,258.5 208.916667,250.25 224.75,233.75 L238.5,244.25 C223,266.083333 203.083333,277 178.75,277 C160.725173,277 145.398146,271.284322 132.76892,259.852966 C129.822186,257.185727 125.732546,252.484738 120.5,245.75 L137.75,240.75 Z" id="Path-11" stroke-width="5" fill="#1497E4"></path>
            <polygon id="Path-3" fill="#1497E4" points="54.25 375 158.75 375 162 399 54.25 399"></polygon>
            <polygon id="Path-4" fill="#1497E4" points="403 375 301.25 375 301.25 399 403 399"></polygon>
        </g>
    </g>
</svg>